<?xml version="1.0" encoding="UTF-8"?>
<svg width="320" height="100" viewBox="0 0 320 100" fill="none" xmlns="http://www.w3.org/2000/svg">
  <defs>
    <linearGradient id="blueGrad" x1="0" y1="0" x2="1" y2="1">
      <stop offset="0%" stop-color="#38bdf8" />
      <stop offset="100%" stop-color="#0ea5e9" />
    </linearGradient>
    <linearGradient id="blueGrad2" x1="0" y1="0" x2="1" y2="1">
      <stop offset="0%" stop-color="#22d3ee" />
      <stop offset="100%" stop-color="#38bdf8" />
    </linearGradient>
  </defs>
  <path d="M42 26C22 26 12 44 12 58C12 81 42 94 72 94C101 94 132 71 132 44C132 26 118 12 92 12C76 12 62 22 56 35" fill="none" stroke="url(#blueGrad)" stroke-width="12" stroke-linecap="round" stroke-linejoin="round" />
  <path d="M66 37C78 20 103 18 121 23C145 31 138 62 120 67C104 72 89 56 90 45" fill="none" stroke="url(#blueGrad2)" stroke-width="12" stroke-linecap="round" stroke-linejoin="round" />
  <path d="M130 19L178 19L156 81" fill="none" stroke="url(#blueGrad)" stroke-width="12" stroke-linecap="round" stroke-linejoin="round" />
  <text x="182" y="45" font-family="Arial, sans-serif" font-size="14" letter-spacing="0.18em" fill="#8dd9fb" font-weight="700">TECHNOLOGY</text>
  <text x="182" y="70" font-family="Arial, sans-serif" font-size="10" letter-spacing="0.18em" fill="#8dd9fb" font-weight="700">LTDA</text>
</svg>
